<svg width="201" height="246" viewBox="0 0 201 246" fill="none" xmlns="http://www.w3.org/2000/svg">
<path d="M180.481 30.9269H97.7954V39.9368H180.481V30.9269Z" fill="#BDDBF2"/>
<path d="M191.257 89.4795H87.0308V98.4894H191.257V89.4795Z" fill="#BDDBF2"/>
<path d="M121.171 22.5936L79.877 199.697H87.1111L128.405 22.5936H121.171Z" fill="#BDDBF2"/>
<path d="M157.111 22.5936H149.876L191.176 199.697H198.41L157.111 22.5936Z" fill="#BDDBF2"/>
<path d="M200.291 148.026H77.9907V157.036H200.291V148.026Z" fill="#BDDBF2"/>
<path d="M181.249 157.048H188.431L190.335 165.121H183.071L181.249 157.048Z" fill="#290920"/>
<path d="M167.605 98.5299H174.816L176.333 104.856H169.047L167.605 98.5299Z" fill="#290920"/>
<path d="M153.904 39.9773H161.15L162.523 45.8701H155.311L153.904 39.9773Z" fill="#290920"/>
<path d="M97.0225 157.048H89.8345L87.9365 165.121H95.1938L97.0225 157.048Z" fill="#290920"/>
<path d="M110.66 98.5299H103.449L101.938 104.856H109.218L110.66 98.5299Z" fill="#290920"/>
<path d="M124.361 39.9773H117.115L115.742 45.8701H122.953L124.361 39.9773Z" fill="#290920"/>
<path d="M182.77 148.084H173.05L171.602 131.834H184.218L182.77 148.084Z" fill="#42A3E8"/>
<path d="M166.986 110.582C166.796 110.501 166.606 110.703 166.71 110.888C167.863 112.924 168.988 114.988 169.629 117.238C169.946 118.342 170.148 119.505 170.742 120.494C170.932 120.812 171.18 121.107 171.463 121.355C172.6 122.35 174.376 121.72 174.705 120.239C175.253 117.787 174.088 115.225 172.317 113.456C170.748 111.877 168.959 111.432 166.986 110.582Z" fill="#209E9B"/>
<path d="M172.963 116.029C172.294 113.41 172.398 110.668 172.271 107.968C172.173 105.759 171.89 103.486 170.973 101.502C170.812 101.15 171.204 100.809 171.527 101.017C174.054 102.636 176.482 104.452 178.271 106.846C179.892 109.02 180.924 111.623 181.242 114.318C181.409 115.781 181.369 117.29 180.861 118.672C180.198 120.488 178.426 122.68 176.448 121.488C174.602 120.378 173.471 118.03 172.963 116.029Z" fill="#40C7A1"/>
<path d="M189.451 115.625C189.468 115.474 189.289 115.382 189.185 115.492C188.003 116.7 186.785 117.891 185.355 118.782C184.651 119.222 183.884 119.592 183.313 120.205C183.128 120.401 182.972 120.633 182.857 120.875C182.39 121.864 183.18 122.98 184.27 122.917C186.082 122.819 187.634 121.494 188.51 119.91C189.289 118.504 189.249 117.163 189.451 115.625Z" fill="#40C7A1"/>
<path d="M173.586 123.281C172.098 121.465 167.904 117.29 160.837 117.342C160.306 117.348 160.018 117.967 160.347 118.377C162.06 120.523 166.71 125.334 173.2 124.311C173.684 124.235 173.898 123.657 173.586 123.281Z" fill="#40C7A1"/>
<path d="M192.064 124.49C190.57 123.992 186.699 123.137 182.713 125.704C182.413 125.895 182.47 126.352 182.805 126.468C184.541 127.063 188.903 128.122 192.214 125.213C192.462 124.999 192.376 124.594 192.064 124.49Z" fill="#209E9B"/>
<path d="M173.915 146.494C175.213 146.268 176.511 146.216 177.809 146.205C179.107 146.211 180.405 146.263 181.703 146.494C180.405 146.725 179.107 146.777 177.809 146.783C176.511 146.772 175.213 146.72 173.915 146.494Z" fill="#290920"/>
<path d="M174.296 106.25C175.035 108.297 175.646 110.391 176.212 112.496C176.771 114.601 177.25 116.729 177.671 118.869C178.046 121.014 178.415 123.171 178.594 125.346C178.773 127.52 178.86 129.712 178.623 131.886C178.606 131.343 178.594 130.799 178.588 130.255C178.577 129.712 178.519 129.174 178.485 128.63C178.462 128.087 178.398 127.549 178.34 127.011C178.283 126.473 178.237 125.935 178.15 125.398C177.885 123.246 177.521 121.107 177.106 118.979C176.731 116.839 176.246 114.722 175.779 112.6C175.548 111.536 175.3 110.478 175.046 109.425L174.296 106.25Z" fill="#290920"/>
<path d="M191.314 124.565C190.114 124.646 188.931 124.802 187.755 124.993C186.583 125.195 185.424 125.444 184.305 125.814C183.186 126.173 182.101 126.647 181.132 127.294C180.157 127.942 179.315 128.786 178.703 129.827C178.899 129.255 179.211 128.723 179.568 128.225C179.938 127.734 180.388 127.306 180.872 126.924C181.841 126.161 182.978 125.641 184.132 125.259C185.297 124.889 186.491 124.652 187.697 124.542C188.908 124.432 190.12 124.426 191.314 124.565Z" fill="#290920"/>
<path d="M169.589 112.901C171.227 115.844 172.796 118.828 174.366 121.806L176.679 126.294C177.446 127.792 178.231 129.284 178.975 130.793L178.444 130.909C178.542 129.428 178.934 127.988 179.54 126.653C180.157 125.322 180.994 124.114 181.923 122.998C182.852 121.882 183.896 120.875 184.992 119.939C186.088 119.002 187.276 118.175 188.436 117.336C187.911 117.828 187.322 118.25 186.78 118.713C186.232 119.175 185.69 119.644 185.171 120.135C184.126 121.118 183.117 122.136 182.252 123.264C181.386 124.391 180.602 125.583 180.007 126.867C179.442 128.162 179.084 129.532 179.009 130.932L178.952 131.956L178.479 131.048C177.7 129.556 176.962 128.04 176.206 126.537L173.956 122.015C172.473 118.996 170.996 115.966 169.589 112.901Z" fill="#290920"/>
<path d="M163.722 118.684C165.372 119.146 166.97 119.788 168.527 120.517C170.085 121.245 171.579 122.113 172.992 123.113C174.388 124.125 175.715 125.276 176.759 126.676C177.284 127.37 177.734 128.121 178.075 128.925C178.398 129.735 178.617 130.579 178.652 131.441C178.49 130.597 178.213 129.787 177.815 129.041C177.434 128.289 176.961 127.589 176.407 126.953C175.317 125.669 174.025 124.571 172.652 123.588C171.279 122.599 169.819 121.731 168.325 120.916C167.581 120.505 166.82 120.124 166.047 119.759C165.285 119.378 164.506 119.031 163.722 118.684Z" fill="#290920"/>
<path d="M149.669 129.064C149.669 129.064 136.383 91.7349 146.403 86.9293C156.424 82.1236 153.592 129.498 153.592 129.498L149.669 129.064Z" fill="#158280"/>
<path d="M151.267 129.428C151.267 129.428 141.829 111.01 139.821 97.0726C139.285 93.3426 134.231 92.5561 132.604 95.9565C132.581 96.0028 132.558 96.0491 132.541 96.1011C130.366 100.901 137.185 124.918 149.819 129.868L151.267 129.428Z" fill="#158280"/>
<path d="M152.138 128.411C152.138 128.411 154.168 101.63 163.174 101.925C172.179 102.219 156.061 122.153 155.772 129.139L152.138 128.411Z" fill="#158280"/>
<path d="M149.669 129.064C149.669 129.064 138.05 107.551 130.983 108.997C123.916 110.443 131.848 125.912 146.848 130.105L149.669 129.064Z" fill="#158280"/>
<path d="M159.718 129.093C159.712 128.717 159.401 128.422 159.031 128.422H154.832H142.394H138.194C137.819 128.422 137.513 128.717 137.508 129.093C137.438 132.297 137.433 145.968 142.394 148.032C142.48 148.067 142.573 148.084 142.671 148.084H143.553H153.684H154.566C154.659 148.084 154.757 148.067 154.843 148.032C159.793 145.968 159.787 132.297 159.718 129.093Z" fill="#FFB41B"/>
<path d="M138.292 131.024C139.925 130.903 141.563 130.851 143.196 130.805C144.828 130.753 146.467 130.747 148.099 130.735C149.732 130.741 151.37 130.747 153.003 130.805L155.454 130.886C156.274 130.932 157.087 130.961 157.906 131.03C157.087 131.094 156.274 131.123 155.454 131.175L153.003 131.256C151.37 131.308 149.732 131.314 148.099 131.325C146.467 131.319 144.828 131.308 143.196 131.256C141.557 131.198 139.925 131.14 138.292 131.024Z" fill="#290920"/>
<path d="M130.164 111.455C130.671 112.241 131.173 113.028 131.704 113.797C132.217 114.578 132.742 115.347 133.29 116.104C134.375 117.619 135.477 119.117 136.671 120.546C137.848 121.98 139.088 123.368 140.455 124.623C140.623 124.779 140.79 124.947 140.963 125.103L141.499 125.542C141.863 125.831 142.203 126.149 142.596 126.392C142.976 126.652 143.345 126.942 143.749 127.173C144.159 127.387 144.568 127.612 144.978 127.844C143.196 127.248 141.609 126.155 140.167 124.958C138.707 123.761 137.432 122.362 136.232 120.916C135.038 119.464 133.931 117.943 132.927 116.353C131.917 114.774 130.965 113.155 130.164 111.455Z" fill="#290920"/>
<path d="M136.129 95.17C136.417 96.5984 136.706 98.021 137.035 99.4321C137.346 100.849 137.681 102.266 138.038 103.671C138.76 106.482 139.515 109.286 140.456 112.027C141.35 114.78 142.405 117.487 143.698 120.072C144.344 121.361 145.065 122.622 145.896 123.796C146.715 124.981 147.678 126.074 148.82 126.976C147.603 126.178 146.571 125.108 145.671 123.963C144.776 122.801 144.009 121.558 143.305 120.274C142.59 118.996 142.007 117.654 141.442 116.307C140.882 114.959 140.375 113.589 139.913 112.207C139.013 109.431 138.246 106.615 137.617 103.775C136.988 100.93 136.464 98.0615 136.129 95.17Z" fill="#290920"/>
<path d="M147.281 88.4213C148.1 91.6019 148.781 94.823 149.398 98.0499C150.021 101.277 150.512 104.533 150.962 107.788C151.371 111.05 151.683 114.335 151.804 117.625C151.816 118.446 151.862 119.273 151.844 120.095L151.793 122.564L151.568 125.028C151.446 125.843 151.279 126.653 151.129 127.456C151.654 124.206 151.556 120.91 151.36 117.648C151.152 114.381 150.846 111.114 150.391 107.864C149.993 104.608 149.491 101.364 148.966 98.1251C148.706 96.5059 148.429 94.8866 148.147 93.2732C147.87 91.6539 147.575 90.0405 147.281 88.4213Z" fill="#290920"/>
<path d="M163.336 103.555C162.615 105.608 161.836 107.644 161.046 109.679C160.255 111.715 159.419 113.728 158.605 115.757C157.752 117.77 156.921 119.788 156.044 121.783L154.717 124.779C154.256 125.768 153.811 126.768 153.338 127.751C153.696 126.716 154.083 125.698 154.458 124.675L155.634 121.621C156.425 119.591 157.261 117.579 158.069 115.555C158.923 113.548 159.753 111.536 160.63 109.535C161.507 107.528 162.39 105.533 163.336 103.555Z" fill="#290920"/>
<path d="M158.709 73.2584C158.709 73.2584 151.757 47.7555 158.374 45.1127C164.985 42.4756 160.734 73.5244 160.734 73.5244L158.709 73.2584Z" fill="#40C7A1"/>
<path d="M158.708 73.2584C158.708 73.2584 156.078 50.8667 151.889 49.9183C147.707 48.9699 152.495 69.806 157.22 73.7326L158.708 73.2584Z" fill="#40C7A1"/>
<path d="M156.28 73.9986C156.28 73.9986 154.457 61.01 147.909 59.7262C141.361 58.4424 155.063 74.5422 155.063 74.5422L156.28 73.9986Z" fill="#40C7A1"/>
<path d="M160.399 73.2584C160.399 73.2584 162.493 51.3409 167.35 51.8151C172.208 52.2893 162.089 73.935 162.089 73.935L160.399 73.2584Z" fill="#40C7A1"/>
<path d="M162.286 73.3914C162.286 73.3914 166.67 59.2521 172.341 59.9287C178.012 60.6053 164.38 74.068 164.38 74.068L162.286 73.3914Z" fill="#40C7A1"/>
<path d="M167.471 73.056C165.458 72.3447 159.678 70.7775 152.403 73.0675C151.878 73.2295 151.52 73.7152 151.52 74.2646C151.509 76.9768 151.688 85.073 154.174 88.7625C154.399 89.0979 154.786 89.2888 155.195 89.2888H164.835C165.366 89.2888 165.839 88.9534 166.012 88.4502C166.768 86.2701 168.637 80.1632 168.296 74.1779C168.273 73.669 167.95 73.2237 167.471 73.056Z" fill="#004B80"/>
<path d="M154.393 71.5525C153.049 69.8754 151.849 68.1059 150.69 66.3131C149.542 64.5088 148.434 62.6814 147.471 60.7615C148.815 62.4385 150.015 64.2081 151.174 66.0008C152.322 67.8051 153.436 69.6326 154.393 71.5525Z" fill="#290920"/>
<path d="M156.608 70.3958C156.066 68.846 155.593 67.2788 155.12 65.7058C154.647 64.1386 154.214 62.5541 153.782 60.9754C153.361 59.3908 152.945 57.8063 152.57 56.2102L152.011 53.816C151.843 53.0122 151.659 52.2142 151.509 51.4045C151.786 52.1795 152.022 52.9602 152.282 53.7409L152.997 56.0945C153.47 57.6617 153.903 59.2463 154.336 60.825C154.751 62.4095 155.172 63.9941 155.547 65.5902C155.928 67.1863 156.297 68.7882 156.608 70.3958Z" fill="#290920"/>
<path d="M158.916 70.3033C158.789 68.3371 158.726 66.3709 158.674 64.3989C158.61 62.4327 158.599 60.4607 158.582 58.4945C158.582 56.5283 158.582 54.5563 158.622 52.5901L158.691 49.6408C158.737 48.6577 158.76 47.6746 158.818 46.6857C158.887 47.6688 158.922 48.6519 158.974 49.635L159.066 52.5843C159.124 54.5505 159.141 56.5225 159.158 58.4887C159.158 60.4549 159.158 62.4269 159.112 64.3931C159.072 66.3651 159.026 68.3313 158.916 70.3033Z" fill="#290920"/>
<path d="M162.279 70.3959C162.568 68.9328 162.914 67.487 163.266 66.0471C163.618 64.6013 164.01 63.1729 164.402 61.7388C164.812 60.3104 165.216 58.882 165.666 57.4651L166.346 55.3428C166.594 54.6431 166.819 53.9318 167.085 53.2378C166.946 53.9722 166.773 54.6951 166.618 55.418L166.093 57.5866C165.741 59.0323 165.348 60.4607 164.956 61.8949C164.546 63.3233 164.143 64.7517 163.687 66.1627C163.248 67.5854 162.793 69.0022 162.279 70.3959Z" fill="#290920"/>
<path d="M164.973 70.7833C166.023 68.9906 167.217 67.3078 168.446 65.648C169.686 63.9999 170.961 62.3749 172.38 60.8597C171.33 62.6525 170.136 64.3353 168.908 65.995C167.661 67.6432 166.387 69.2682 164.973 70.7833Z" fill="#290920"/>
<path d="M152.663 75.1206C155.005 74.895 157.341 74.843 159.683 74.8314C162.026 74.8372 164.362 74.8893 166.704 75.1206C164.362 75.3519 162.026 75.4039 159.683 75.4097C157.347 75.4039 155.005 75.3461 152.663 75.1206Z" fill="#290920"/>
<path d="M155.167 87.9415C156.707 87.716 158.241 87.6639 159.782 87.6523C161.322 87.6581 162.856 87.7102 164.397 87.9415C162.856 88.1728 161.322 88.2249 159.782 88.2306C158.241 88.2191 156.701 88.167 155.167 87.9415Z" fill="#290920"/>
<path d="M111.766 12.3407C111.766 12.3407 110.584 10.6809 111.513 6.80056C111.536 6.71382 111.64 6.67912 111.703 6.74273C112.28 7.30946 113.78 9.10219 113.913 10.6058C114.063 12.3407 111.766 12.3407 111.766 12.3407Z" fill="#24B0AD"/>
<path d="M113.636 9.53586C113.636 9.53586 114.749 8.1306 114.888 6.5692C114.905 6.38992 115.141 6.33788 115.234 6.48823C115.955 7.68531 117.409 10.6462 115.551 12.6124L113.636 9.53586Z" fill="#158A87"/>
<path d="M110.232 16.1863C110.232 16.1863 107.48 13.9425 108.386 7.70271C108.415 7.51765 108.628 7.42512 108.778 7.52922C109.834 8.25209 111.969 10.12 112.257 12.8611C112.609 16.1401 110.232 16.1863 110.232 16.1863Z" fill="#158A87"/>
<path d="M114.593 15.2958C114.593 15.2958 115.239 12.011 116.797 9.62844C116.901 9.46652 117.149 9.49543 117.207 9.68049C117.61 10.9932 118.741 14.8505 118.458 15.7931C118.107 16.9323 114.593 15.2958 114.593 15.2958Z" fill="#24B0AD"/>
<path d="M111.276 14.2548L106.886 10.2241C106.73 10.0795 106.482 10.1778 106.459 10.386C106.332 11.6062 106.188 14.7059 107.809 15.4982C109.84 16.487 111.028 15.5907 111.276 14.2548Z" fill="#24B0AD"/>
<path d="M116.267 15.5097C116.267 15.5097 117.951 13.7922 119.67 12.9305C119.843 12.8438 120.051 12.9537 120.068 13.1503C120.161 14.3473 120.253 18.0138 118.095 19.5L114.801 18.4243L116.267 15.5097Z" fill="#4BCFCC"/>
<path d="M112.211 18.8002C112.211 18.8002 110.763 17.0769 111.213 14.6711C111.663 12.2654 113.07 10.2703 113.52 9.09057C113.826 8.2983 117.368 15.6195 116.78 17.6609C116.191 19.7023 114.697 21.3331 114.697 21.3331C114.697 21.3331 112.932 21.1134 112.211 18.8002Z" fill="#4BCFCC"/>
<path d="M108.121 19.5521C108.121 19.5521 105.646 18.1526 104.619 14.5498C104.579 14.4053 104.694 14.2607 104.844 14.278C105.784 14.3763 108.646 14.7754 110.082 16.198C111.819 17.9155 108.121 19.5521 108.121 19.5521Z" fill="#4BCFCC"/>
<path d="M109.344 19.1646C109.344 19.1646 108.305 16.6548 110.93 13.3065C111.022 13.185 111.207 13.2024 111.282 13.3354C111.755 14.1971 113.14 16.9498 112.811 19.2167L109.344 19.1646Z" fill="#158A87"/>
<path d="M113.105 18.8176C113.105 18.8176 113.647 16.834 115.084 15.2957C115.782 14.5497 116.139 14.0466 116.324 13.7285C116.416 13.5724 116.647 13.5955 116.705 13.769C117.114 14.9777 117.916 17.9964 116.272 19.2166L113.105 18.8176Z" fill="#158A87"/>
<path d="M108.911 30.9791H116.636C118.689 29.6259 120.443 27.1277 120.957 24.0974C121.683 19.7948 119.237 18.2739 119.237 18.2739H106.304C106.304 18.2739 103.863 19.7948 104.584 24.0974C105.098 27.1219 106.857 29.6201 108.911 30.9791Z" fill="#42A3E8"/>
<path d="M106.131 19.0258C108.404 18.8003 110.683 18.7483 112.955 18.7367C115.228 18.7425 117.507 18.7945 119.78 19.0258C117.507 19.2572 115.228 19.3092 112.955 19.315C110.683 19.3092 108.404 19.2514 106.131 19.0258Z" fill="#290920"/>
<path d="M117.813 17.2907C117.9 16.6488 118.148 16.0995 118.425 15.5616C118.719 15.0354 119.054 14.5323 119.544 14.1101C119.458 14.752 119.215 15.3072 118.933 15.8392C118.633 16.3655 118.298 16.8686 117.813 17.2907Z" fill="#290920"/>
<path d="M115.021 17.6783C115.09 17.1173 115.309 16.6489 115.569 16.2036C115.84 15.7641 116.151 15.3535 116.607 15.0297C116.538 15.5906 116.319 16.059 116.059 16.5043C115.794 16.938 115.482 17.3544 115.021 17.6783Z" fill="#290920"/>
<path d="M110.694 17.6784C110.538 17.1579 110.561 16.6605 110.625 16.169C110.705 15.6774 110.827 15.1975 111.127 14.7406C111.282 15.2669 111.259 15.7642 111.196 16.25C111.115 16.7357 110.994 17.2215 110.694 17.6784Z" fill="#290920"/>
<path d="M106.079 15.4578C106.586 15.6602 106.967 15.9898 107.319 16.3426C107.659 16.7127 107.965 17.1059 108.144 17.6264C107.636 17.424 107.25 17.1001 106.904 16.7416C106.569 16.3773 106.263 15.9782 106.079 15.4578Z" fill="#290920"/>
<path d="M107.187 11.9417C107.665 12.3002 107.988 12.7455 108.277 13.2139C108.548 13.6939 108.785 14.1912 108.871 14.7811C108.392 14.4225 108.069 13.9773 107.781 13.5088C107.51 13.0346 107.273 12.5315 107.187 11.9417Z" fill="#290920"/>
<path d="M113.388 15.4577C113.215 14.677 113.221 13.9136 113.267 13.1445C113.33 12.3811 113.44 11.6236 113.723 10.8776C113.896 11.6583 113.89 12.4216 113.844 13.1908C113.78 13.9541 113.671 14.7117 113.388 15.4577Z" fill="#290920"/>
<path d="M169.675 25.7629C169.675 25.7629 164.962 17.5684 169.145 13.4683C173.321 9.36815 177.233 14.2721 177.498 15.9607C177.763 17.6552 174.031 25.9422 174.031 25.9422L169.675 25.7629Z" fill="#158280"/>
<path d="M171.187 14.6248C171.187 14.6248 171.1 7.32095 167.368 5.89256C163.635 4.46417 160.878 9.90016 162.568 11.9531C164.258 14.0003 170.39 15.0701 170.39 15.0701L171.187 14.6248Z" fill="#158280"/>
<path d="M165.406 6.3436C165.406 6.3436 164.604 0.907605 167.627 0.109555C168.919 -0.231641 169.629 0.271478 170.015 0.965435C170.581 1.97746 170.373 3.24393 169.594 4.10559L166.912 7.06069L165.406 6.3436Z" fill="#158280"/>
<path d="M168.758 30.3314C168.74 30.3892 168.735 30.4412 168.735 30.5049C168.735 30.6726 168.804 30.8171 168.902 30.9328H169.883C169.987 30.8171 170.05 30.6668 170.05 30.5049C170.05 30.4528 170.044 30.4008 170.033 30.3545H173.408C173.396 30.4066 173.39 30.4528 173.39 30.5049C173.39 30.6726 173.459 30.8171 173.558 30.9328H174.538C174.642 30.8171 174.706 30.6668 174.706 30.5049C174.706 30.4412 174.694 30.3834 174.677 30.3256C177.082 29.221 176.419 26.4047 176.13 25.4852C176.073 25.3118 175.911 25.1903 175.727 25.1903H167.691C167.506 25.1903 167.344 25.306 167.287 25.4852C166.993 26.4047 166.329 29.2326 168.758 30.3314Z" fill="#FF6168"/>
<path d="M172.329 11.9417C171.874 12.358 171.447 12.7917 171.066 13.266C170.674 13.7286 170.31 14.2144 170.004 14.729C169.399 15.7584 168.926 16.8745 168.816 18.0485C168.689 19.2282 168.764 20.4484 168.937 21.6397C169.029 22.2353 169.156 22.831 169.329 23.4151C169.485 24.0049 169.687 24.5832 169.929 25.15C169.237 24.1264 168.799 22.9409 168.504 21.7264C168.222 20.5062 168.118 19.2513 168.245 17.9849C168.383 16.7068 168.908 15.504 169.635 14.4862C170.368 13.4684 171.274 12.5836 172.329 11.9417Z" fill="#290920"/>
<path d="M174.683 12.7108C175.214 13.6477 175.542 14.7059 175.658 15.7989C175.727 16.3425 175.71 16.8977 175.652 17.4529C175.589 18.0022 175.479 18.5227 175.369 19.0547C174.896 21.154 174.285 23.2069 173.483 25.202C173.846 23.0855 174.36 21.0094 174.81 18.9333C175.046 17.8866 175.26 16.8803 175.214 15.8336C175.173 14.7869 175.006 13.7344 174.683 12.7108Z" fill="#290920"/>
<path d="M173.385 12.1324C173.304 14.33 173.05 16.5102 172.756 18.6788C172.445 20.8474 172.087 23.0102 171.556 25.1441C171.637 22.9408 171.885 20.7664 172.185 18.5978C172.502 16.435 172.854 14.2721 173.385 12.1324Z" fill="#290920"/>
<path d="M162.182 9.81934C162.655 10.2473 163.122 10.6636 163.601 11.0627C164.08 11.4501 164.558 11.8434 165.078 12.1672C165.585 12.4969 166.122 12.786 166.681 13.0115C167.253 13.2197 167.841 13.3412 168.481 13.3932C167.87 13.5841 167.195 13.5898 166.549 13.4453C165.908 13.2949 165.308 13 164.76 12.653C164.212 12.2944 163.728 11.8665 163.289 11.3923C162.862 10.9123 162.47 10.3976 162.182 9.81934Z" fill="#290920"/>
<path d="M164.686 6.06033C165.436 5.97937 166.22 6.15286 166.912 6.49406C167.616 6.82947 168.222 7.34994 168.712 7.95137C169.197 8.56436 169.537 9.26989 169.785 9.99276C169.906 10.3571 169.976 10.733 170.062 11.0973C170.097 11.479 170.149 11.8491 170.16 12.225C170.016 11.8722 169.912 11.5137 169.785 11.1667C169.635 10.8255 169.514 10.4843 169.364 10.1489C169.185 9.83083 169.064 9.48385 168.856 9.18892C168.758 9.03857 168.683 8.87664 168.574 8.73207L168.251 8.30413C167.807 7.74896 167.282 7.26319 166.682 6.88152C166.093 6.51141 165.424 6.21069 164.686 6.06033Z" fill="#290920"/>
<path d="M163.532 7.41357C164.639 8.13066 165.626 8.97498 166.589 9.85399C167.535 10.7446 168.458 11.6641 169.254 12.7166C168.147 11.9995 167.16 11.1552 166.197 10.2761C165.251 9.38557 164.328 8.46608 163.532 7.41357Z" fill="#290920"/>
<path d="M166.128 5.14665C166.03 4.63197 166.047 4.09993 166.116 3.57947C166.191 3.059 166.33 2.54431 166.56 2.05276C166.797 1.57277 167.108 1.11014 167.535 0.763158C167.962 0.416179 168.487 0.207992 169.012 0.179077C168.551 0.439311 168.17 0.734243 167.847 1.087C167.541 1.45133 167.293 1.86192 167.085 2.30143C166.866 2.73515 166.71 3.20357 166.555 3.67778C166.405 4.15776 166.266 4.64353 166.128 5.14665Z" fill="#290920"/>
<path d="M167.229 5.62667C167.812 4.87488 168.331 4.14622 168.741 3.35396C168.954 2.9665 169.127 2.55591 169.283 2.13375C169.445 1.71159 169.543 1.27209 169.681 0.809448C169.785 1.27209 169.814 1.76942 169.722 2.24941C169.647 2.7294 169.479 3.19782 169.254 3.62576C169.024 4.0537 168.741 4.45272 168.401 4.79392C168.06 5.13511 167.674 5.43583 167.229 5.62667Z" fill="#290920"/>
<path d="M52.7628 53.2435C51.1013 53.2666 49.5149 54.0068 48.4995 55.3196C41.5769 64.2369 40.1808 83.0432 43.0306 87.924C46.3939 93.6723 42.921 95.7368 43.7287 100.93C44.3863 105.151 50.3052 108.355 52.5032 109.408C53.0224 109.656 53.6166 109.651 54.1358 109.402C56.4087 108.303 62.6852 104.903 63.2218 100.635C63.8736 95.4187 60.3431 93.4583 63.5333 87.6117C66.2389 82.6499 64.2775 63.8957 57.0894 55.1866C56.028 53.9085 54.4184 53.2204 52.7628 53.2435Z" fill="#24B0AD"/>
<path d="M101.631 104.504C100.373 103.422 98.6947 102.919 97.0621 103.226C85.9858 105.308 72.4982 118.458 71.4136 124.004C70.1329 130.539 66.1639 129.781 63.3372 134.211C61.0354 137.808 63.3545 144.14 64.3006 146.39C64.5256 146.922 64.9755 147.315 65.5236 147.471C67.9523 148.159 74.898 149.785 78.1228 146.945C82.063 143.469 80.7131 139.659 86.9665 137.397C92.2739 135.477 103.206 120.129 103.581 108.841C103.633 107.176 102.889 105.585 101.631 104.504Z" fill="#209E9B"/>
<path d="M2.37186 116.613C1.31616 117.504 0.681577 118.817 0.716191 120.199C0.935409 129.596 9.90603 142.452 14.3019 144.088C19.4824 146.02 18.3286 149.177 21.5823 152.098C24.2244 154.469 29.7164 153.41 31.6836 152.93C32.1509 152.815 32.5316 152.502 32.7335 152.069C33.6219 150.16 35.8833 144.661 33.9854 141.63C31.6663 137.924 28.3665 138.525 27.3512 133.077C26.4916 128.457 15.3807 117.406 6.1851 115.584C4.82364 115.318 3.4218 115.723 2.37186 116.613Z" fill="#209E9B"/>
<path d="M85.7153 137.605C84.7288 136.917 83.4885 136.674 82.3347 137.01C74.5005 139.3 65.7145 149.738 65.328 153.815C64.8665 158.615 61.959 158.355 60.2341 161.744C58.8322 164.502 60.9494 168.897 61.7974 170.453C61.9994 170.817 62.3455 171.072 62.7551 171.147C64.555 171.471 69.6777 172.141 71.7949 169.869C74.3852 167.087 73.1448 164.433 77.4888 162.357C81.1751 160.599 87.9651 148.755 87.4344 140.589C87.3536 139.387 86.7017 138.294 85.7153 137.605Z" fill="#158280"/>
<path d="M27.0971 81.3488C25.7818 81.7709 24.6973 82.7425 24.2012 84.0321C20.8379 92.8048 24.2415 108.112 27.6856 111.31C31.7411 115.075 29.4739 117.556 31.3719 121.5C32.9122 124.704 38.3926 125.82 40.3944 126.126C40.8675 126.201 41.3405 126.051 41.6924 125.727C43.2385 124.305 47.4152 120.077 46.8152 116.556C46.0826 112.241 42.8001 111.536 43.9308 106.111C44.8942 101.508 38.8195 87.0508 31.0085 81.8519C29.8547 81.0885 28.4067 80.9266 27.0971 81.3488Z" fill="#209E9B"/>
<path d="M81.544 83.4132C80.3152 82.7771 78.8614 82.6961 77.6038 83.2571C69.037 87.0738 60.6433 100.317 60.8279 105.013C61.0413 110.553 57.6896 110.697 56.2474 114.826C55.0763 118.18 58.1627 122.859 59.3626 124.495C59.6453 124.883 60.0837 125.114 60.5625 125.132C62.6624 125.218 68.5928 125.195 70.6581 122.281C73.1791 118.712 71.3561 115.885 75.9828 112.854C79.9114 110.281 85.8129 95.7541 83.9554 86.5418C83.6785 85.1886 82.767 84.0493 81.544 83.4132Z" fill="#209E9B"/>
<path d="M51.2285 85.4662C49.8498 85.4372 48.5056 85.9982 47.6172 87.0565C41.5829 94.2505 39.8292 109.841 42.0502 113.982C44.6635 118.863 41.7156 120.47 42.2233 124.819C42.6386 128.347 47.4557 131.198 49.2498 132.141C49.6709 132.366 50.167 132.378 50.6055 132.187C52.5323 131.342 57.8512 128.717 58.4339 125.189C59.1434 120.875 56.2648 119.135 59.1031 114.375C61.5087 110.339 60.4645 94.6842 54.7706 87.2184C53.9226 86.1254 52.6073 85.5009 51.2285 85.4662Z" fill="#158280"/>
<path d="M26.1284 155.631C25.2458 156.261 24.6631 157.244 24.5997 158.326C24.167 165.688 30.3513 176.317 33.6799 177.878C37.6085 179.723 36.5009 182.117 38.8546 184.615C40.7641 186.639 45.1254 186.171 46.6945 185.922C47.0637 185.864 47.3868 185.639 47.5714 185.315C48.3906 183.881 50.5078 179.729 49.2213 177.236C47.6464 174.189 45.0273 174.443 44.5831 170.117C44.2081 166.451 36.2355 157.088 29.1629 155.07C28.1302 154.781 27.0111 155.006 26.1284 155.631Z" fill="#158280"/>
<path d="M62.8993 246.007H41.3928L28.3032 196.014H75.9946L62.8993 246.007Z" fill="#FFB41B"/>
<path d="M32.7222 200.131C35.8951 200.01 39.0679 199.958 42.2408 199.911C45.4137 199.865 48.5866 199.871 51.7595 199.842C54.9324 199.865 58.1053 199.865 61.2782 199.905L66.0375 199.986C67.624 200.033 69.2104 200.062 70.7968 200.131C69.2104 200.195 67.624 200.224 66.0375 200.276L61.2782 200.357C58.1053 200.403 54.9324 200.403 51.7595 200.42C48.5866 200.397 45.4137 200.403 42.2408 200.351C39.0679 200.304 35.8951 200.247 32.7222 200.131Z" fill="#290920"/>
<path d="M52.2036 196.06C53.7554 190.653 55.6476 185.35 57.7244 180.122C59.807 174.894 62.1549 169.776 64.7452 164.774C67.3989 159.812 70.2948 154.96 73.7216 150.484C77.1541 146.043 81.1 141.868 85.9343 138.97C83.5806 140.503 81.4461 142.342 79.4962 144.348C77.5406 146.349 75.7234 148.489 74.0735 150.75C72.4236 153.011 70.8429 155.325 69.3834 157.719C67.9296 160.113 66.5508 162.559 65.2471 165.04C62.6222 169.996 60.2858 175.102 58.1225 180.284C57.0379 182.869 56.0053 185.483 55.0188 188.114C54.0323 190.745 53.0863 193.388 52.2036 196.06Z" fill="#290920"/>
<path d="M26.9531 157.192C29.5318 160.09 31.9894 163.091 34.3892 166.133C36.7891 169.181 39.0909 172.303 41.335 175.472C43.5329 178.67 45.6732 181.915 47.5711 185.309C48.523 187.004 49.4056 188.739 50.1844 190.52C50.9344 192.307 51.6209 194.151 51.8978 196.077C51.494 194.18 50.7556 192.376 49.9248 190.635C49.0999 188.889 48.1769 187.189 47.1846 185.529C45.2174 182.198 43.0887 178.965 40.8619 175.802C38.664 172.616 36.3622 169.504 34.0373 166.405C32.8778 164.855 31.7009 163.317 30.5183 161.784C29.3472 160.24 28.1473 158.719 26.9531 157.192Z" fill="#290920"/>
<path d="M100.362 105.579L91.4494 115.434L82.4903 125.247L73.5024 135.032C72.0024 136.663 70.491 138.282 69.0661 139.959C67.6527 141.654 66.3259 143.417 65.0971 145.245C60.1705 152.56 56.813 160.94 55.388 169.66C55.0246 171.835 54.7881 174.044 54.5169 176.242L53.7151 182.846L52.0479 196.042C52.9882 187.223 53.8247 178.404 54.9496 169.591C56.2938 160.789 59.6859 152.323 64.6183 144.921C65.8643 143.076 67.2143 141.307 68.645 139.601C70.0929 137.906 71.6159 136.299 73.1216 134.673L82.1672 124.941L91.2417 115.237L100.362 105.579Z" fill="#290920"/>
<path d="M51.8054 196.083C50.6689 192.353 49.3594 188.681 47.9749 185.037C46.5961 181.394 45.1308 177.78 43.5732 174.217C40.4695 167.076 37.0082 160.09 33.1257 153.347C31.1874 149.975 29.1337 146.667 26.9703 143.435C24.7955 140.208 22.4706 137.091 20.0592 134.037C17.6132 131.013 15.0172 128.116 12.2885 125.346C9.53099 122.604 6.6177 120.019 3.53711 117.631C6.66962 119.939 9.65213 122.46 12.4847 125.143C15.2653 127.879 17.9074 130.758 20.3996 133.76C22.8744 136.779 25.1993 139.919 27.403 143.14C29.5836 146.378 31.6604 149.686 33.6219 153.058C37.4755 159.847 40.9541 166.85 43.977 174.044C45.4885 177.641 46.9134 181.273 48.2345 184.945C49.5382 188.617 50.7612 192.324 51.8054 196.083Z" fill="#290920"/>
<path d="M50.8418 88.1322L51.1475 101.618L51.3841 115.098L51.7763 142.07L52.0302 169.036L52.1109 182.522L52.1282 196.008L51.8283 182.528L51.586 169.042L51.1995 142.076L50.9456 115.104L50.8649 101.618L50.8418 88.1322Z" fill="#290920"/>
<path d="M80.8404 84.6624C78.9251 87.5365 77.1021 90.4685 75.3484 93.4351C73.5831 96.396 71.8813 99.4031 70.2429 102.439C66.9777 108.517 63.9375 114.716 61.2954 121.089C58.6128 127.439 56.3284 133.968 54.6035 140.642C52.8901 147.315 51.7998 154.174 51.7536 161.09C51.6556 157.632 51.869 154.174 52.2728 150.739C52.694 147.304 53.3862 143.903 54.1766 140.537C55.8207 133.806 58.1167 127.26 60.7646 120.87C63.4587 114.497 66.4989 108.274 69.8564 102.231C73.2254 96.1936 76.831 90.2892 80.8404 84.6624Z" fill="#290920"/>
<path d="M26.9531 82.7367C29.428 89.2657 31.7932 95.8409 34.1181 102.428C36.4429 109.015 38.6813 115.63 40.885 122.258C43.0426 128.902 45.177 135.558 47.1212 142.267C48.0903 145.621 49.0249 148.992 49.8671 152.381C50.2825 154.081 50.669 155.781 51.0209 157.499C51.344 159.217 51.6728 160.94 51.7536 162.686C51.3901 159.211 50.4902 155.822 49.596 152.456C48.6961 149.085 47.7154 145.736 46.6943 142.394C44.6636 135.715 42.5349 129.064 40.3369 122.437C38.1794 115.798 35.9295 109.182 33.697 102.567L26.9531 82.7367Z" fill="#290920"/>
<path d="M52.3361 54.6892C52.5496 57.2511 52.7054 59.8129 52.8438 62.3806C52.988 64.9424 53.0803 67.5101 53.2015 70.0777C53.2765 72.6453 53.3745 75.213 53.4265 77.7806L53.4899 81.6321C53.4899 82.9159 53.513 84.1997 53.4957 85.4893C53.3803 84.2113 53.3053 82.9275 53.213 81.6437L52.988 77.798C52.8438 75.2361 52.7515 72.6685 52.6361 70.1008C52.5669 67.5332 52.4631 64.9656 52.4169 62.3979C52.3535 59.8245 52.3131 57.2569 52.3361 54.6892Z" fill="#290920"/>
<path d="M27.2876 165.144C28.8164 165.543 30.2817 166.11 31.7239 166.711C33.1603 167.33 34.5852 167.989 35.9409 168.81C34.4122 168.411 32.9469 167.85 31.5047 167.243C30.0624 166.619 28.6433 165.965 27.2876 165.144Z" fill="#290920"/>
<path d="M4.59863 127.167C5.9024 127.572 7.1831 128.035 8.45802 128.503C9.73871 128.966 10.9963 129.475 12.2597 129.984C13.5173 130.504 14.7692 131.024 16.0095 131.585L17.8671 132.43C18.4786 132.73 19.0958 133.014 19.7016 133.332C19.0497 133.135 18.4094 132.904 17.7632 132.69L15.848 131.996C14.573 131.528 13.3097 131.024 12.0463 130.516C10.7887 129.995 9.5368 129.475 8.29649 128.914C7.04464 128.359 5.8101 127.792 4.59863 127.167Z" fill="#290920"/>
<path d="M24.6914 91.9894C25.626 92.9898 26.5144 94.0365 27.3912 95.0833C28.2739 96.1242 29.1219 97.1998 29.9699 98.2697C30.8064 99.3511 31.6429 100.433 32.439 101.537L33.639 103.203C34.0197 103.769 34.4178 104.324 34.787 104.903C34.3139 104.405 33.8697 103.885 33.414 103.376L32.0871 101.809C31.2045 100.762 30.3565 99.6923 29.5084 98.6225C28.6719 97.541 27.8355 96.4596 27.0393 95.3493C26.2375 94.2505 25.4414 93.1402 24.6914 91.9894Z" fill="#290920"/>
<path d="M56.6109 100.086C56.2937 101.659 55.9129 103.22 55.5264 104.77C55.1456 106.325 54.7187 107.869 54.2918 109.414C53.8534 110.952 53.415 112.496 52.9304 114.023L52.2035 116.313C51.9439 117.07 51.6959 117.834 51.4189 118.585C51.5747 117.799 51.7593 117.018 51.9324 116.232L52.5035 113.895C52.8842 112.34 53.3111 110.796 53.738 109.252C54.1765 107.713 54.6149 106.169 55.0995 104.643C55.5783 103.122 56.0687 101.595 56.6109 100.086Z" fill="#290920"/>
<path d="M70.5542 89.8671C70.4965 91.174 70.3754 92.4752 70.2427 93.7764C70.1215 95.0775 69.9485 96.3729 69.7812 97.6625C69.5966 98.9521 69.4119 100.248 69.187 101.531L68.8408 103.463C68.7024 104.105 68.587 104.747 68.437 105.383C68.4601 104.729 68.5178 104.076 68.5639 103.422L68.7485 101.473C68.8754 100.172 69.0427 98.8769 69.21 97.5873C69.3946 96.2977 69.5792 95.0024 69.8042 93.7185C70.0292 92.4289 70.26 91.1451 70.5542 89.8671Z" fill="#290920"/>
<path d="M86.0321 110.298C85.8821 111.547 85.6167 112.773 85.3629 113.999C85.1091 115.225 84.8091 116.44 84.5091 117.654C84.1976 118.863 83.8803 120.077 83.5226 121.274L82.9803 123.073C82.7784 123.669 82.5996 124.264 82.3804 124.854C82.4727 124.23 82.5996 123.617 82.7092 123.004L83.0957 121.165C83.3553 119.939 83.6553 118.724 83.9553 117.515C84.2668 116.307 84.5841 115.092 84.936 113.895L85.4667 112.097L86.0321 110.298Z" fill="#290920"/>
<path d="M81.2267 151.456C80.2114 152.19 79.1672 152.878 78.1172 153.549C77.0731 154.232 76.0001 154.868 74.9328 155.51C73.854 156.14 72.781 156.764 71.6791 157.354L70.0292 158.239C69.4697 158.517 68.9158 158.806 68.3447 159.066C68.8466 158.69 69.3716 158.349 69.885 157.99L71.4542 156.967C72.5041 156.284 73.5713 155.648 74.6386 155.006C75.7174 154.376 76.7962 153.752 77.8922 153.162C78.9941 152.578 80.096 151.988 81.2267 151.456Z" fill="#290920"/>
<path d="M171.793 225.252C176.287 230.266 179.091 233.389 179.091 233.389L183.539 230.266C181.641 226.796 179.772 223.413 177.943 220.158C175.93 221.887 173.87 223.581 171.793 225.252Z" fill="#FA9778"/>
<path d="M179.01 233.054L174.58 239.906L175.11 240.803L184.796 234.684C185.535 234.216 185.737 233.204 185.223 232.493L183.562 230.179L179.01 233.054Z" fill="#FF6168"/>
<path d="M120.387 222.326C121.339 230.22 121.956 235.269 121.956 235.269H127.39C127.875 230.902 128.279 226.791 128.619 222.934C125.873 222.743 123.127 222.54 120.387 222.326Z" fill="#FA9778"/>
<path d="M122.048 235.269L114.652 238.698L114.624 239.739H126.075C126.952 239.739 127.655 238.987 127.604 238.114L127.425 235.269H122.048Z" fill="#FF6168"/>
<path d="M117.912 105.516C117.912 105.516 109.155 120.17 109.495 130.949C109.835 141.729 120.929 231.88 120.929 231.88H128.78L131.682 144.979L141.853 191.011C142.349 193.244 143.405 195.314 144.933 197.014L176.224 231.886L183.221 227.265L157.792 184.159C157.792 184.159 153.414 121.506 137.37 105.528C136.995 105.146 117.912 105.516 117.912 105.516Z" fill="#42A3E8"/>
<path d="M139.591 116.567L145.776 145.667C147.875 155.359 149.958 165.058 152.312 174.686C152.9 177.092 153.5 179.498 154.164 181.88C154.498 183.071 154.838 184.263 155.254 185.414C155.462 185.992 155.681 186.559 155.998 187.015C156.367 187.524 156.754 188.033 157.077 188.56C159.788 192.729 162.315 196.991 164.836 201.259C167.351 205.533 169.843 209.812 172.324 214.109L179.685 227.028L172.082 214.247L164.455 201.484C161.877 197.257 159.356 192.978 156.644 188.854C156.31 188.328 155.946 187.848 155.588 187.357C155.19 186.79 154.971 186.188 154.752 185.604C154.325 184.425 153.979 183.233 153.639 182.036C152.964 179.642 152.352 177.236 151.758 174.831C149.45 165.179 147.356 155.481 145.349 145.766L142.401 131.181L139.591 116.567Z" fill="#290920"/>
<path d="M131.677 144.956L125.071 131.406L131.336 155.059L131.677 144.956Z" fill="#290920"/>
<path d="M108.226 110.478C106.034 109.061 103.426 108.031 101.055 106.719C91.9522 127.416 81.4932 143.649 81.4932 143.649L84.8449 146.24C96.0884 136.68 104.407 123.408 110.124 111.727C109.495 111.31 108.867 110.894 108.226 110.478Z" fill="#FA9778"/>
<path d="M84.9254 146.037C84.9254 146.037 82.439 151.699 80.7834 152.745C80.4142 152.977 80.5872 152.127 81.0314 151.057C81.0314 151.057 79.145 153.37 78.8046 153.526C78.4643 153.682 80.4776 149.767 80.4776 149.767C80.4776 149.767 77.7028 153.52 77.2874 153.439C76.8721 153.353 79.1912 149.524 79.1912 149.524C79.1912 149.524 76.9413 152.526 76.5432 152.416C76.1452 152.306 78.9373 147.83 78.9373 147.83C78.9373 147.83 76.8201 148.107 76.9125 147.518C77.0048 146.928 78.9085 145.829 79.6931 145.528C80.4776 145.228 82.2487 142.567 82.2487 142.567L84.9254 146.037Z" fill="#FA9778"/>
<path d="M117.058 72.8999C117.058 72.8999 112.835 76.4102 111.422 79.2149C110.009 82.0197 98.2861 111.443 98.2861 111.443L108.411 117.145L121.494 89.2021L117.058 72.8999Z" fill="#FF6168"/>
<path d="M116.417 99.9874L114.3 88.5198L115.598 101.722L116.417 99.9874Z" fill="#290920"/>
<path d="M119.362 73.6129L126.568 72.4982L125.094 62.9193L117.887 64.034L119.362 73.6129Z" fill="#FA9778"/>
<path d="M118.171 65.8562L118.639 68.8981C118.639 68.8981 123.035 67.7415 124.35 65.2664L118.171 65.8562Z" fill="#290920"/>
<path d="M122.435 83.1127C124.921 82.8987 126.756 80.013 127.817 78.0352C128.567 76.6358 129.017 75.1264 129.392 73.5881C129.49 73.1891 129.611 72.7901 129.738 72.3853C128.123 72.125 126.969 71.3617 126.265 70.6215L119.066 71.7376C118.65 72.5935 118.206 74.045 117.15 75.0801C117.658 78.5268 118.893 83.425 122.435 83.1127Z" fill="#FA9778"/>
<path d="M117.912 105.516H137.364C136.684 101.584 139.412 83.3324 138.784 78.6598C138.161 73.9814 134.861 71.5872 131.901 71.9862C128.942 72.3853 126.259 70.6215 126.259 70.6215L120.242 79.5735L118.991 71.7896C117.987 71.8243 117.104 72.4547 116.741 73.3973C116.037 75.2247 114.797 78.2319 113.585 79.9725C111.953 82.3262 112.108 89.4971 114.099 93.603C116.095 97.7031 117.912 105.516 117.912 105.516Z" fill="#FF6168"/>
<path d="M117.86 73.0965L118.391 75.8665C118.558 76.7918 118.737 77.7113 118.939 78.625C119.146 79.5329 119.337 80.4582 119.625 81.3256C119.7 81.5338 119.781 81.7536 119.873 81.9213C119.902 82.0023 120.029 82.0543 119.867 82.0023C119.844 82.008 119.948 81.9618 120.012 81.8982C120.323 81.6321 120.612 81.2505 120.889 80.8861C121.996 79.3999 122.977 77.7922 123.992 76.2193L126.998 71.4541C126.19 73.1543 125.296 74.8082 124.373 76.4506C123.444 78.0872 122.475 79.7006 121.35 81.2389C121.056 81.6206 120.773 81.9965 120.369 82.3377C120.254 82.4186 120.162 82.5227 119.902 82.5574C119.821 82.5574 119.741 82.5516 119.66 82.4996C119.579 82.4475 119.579 82.4302 119.533 82.3897C119.458 82.3145 119.441 82.2625 119.394 82.1989C119.256 81.956 119.181 81.7247 119.106 81.4933C118.829 80.5623 118.65 79.6428 118.506 78.706C118.2 76.8438 117.987 74.9759 117.86 73.0965Z" fill="#290920"/>
<path d="M114.046 140.879L97.1378 151.629C96.2609 152.19 95.0956 151.913 94.5533 151.022C91.4497 145.916 87.048 135.015 85.5077 131.106C85.1789 130.273 85.4904 129.33 86.2404 128.85L93.9015 123.981L98.1531 121.275C98.9031 120.795 99.8838 120.916 100.495 121.564C103.316 124.559 111.052 132.927 114.589 138.265C115.171 139.144 114.929 140.318 114.046 140.879Z" fill="#FFB41B"/>
<path d="M97.4956 143.643L95.9495 150.577L73.3989 143.36L74.0277 140.538L97.4956 143.643Z" fill="#FFB41B"/>
<path d="M74.5064 140.798L73.9757 143.163L69.4067 145.106L71.1951 137.091L74.5064 140.798Z" fill="#FFB41B"/>
<path d="M98.8281 123.177C99.0762 122.454 99.3704 121.841 99.7108 121.199C100.045 120.569 100.443 119.962 100.893 119.378C101.799 118.244 102.97 117.14 104.568 116.631C105.353 116.376 106.224 116.319 107.037 116.44C107.441 116.504 107.839 116.608 108.214 116.746C108.589 116.897 108.929 117.041 109.299 117.278C110.02 117.718 110.614 118.366 111.018 119.054C111.433 119.748 111.67 120.476 111.843 121.194C112.477 124.073 112.172 126.797 112.004 129.475C111.912 130.811 111.825 132.141 111.831 133.448C111.837 134.101 111.883 134.749 112.01 135.368C112.143 135.981 112.35 136.571 112.76 136.998L112.379 137.432C111.785 136.946 111.445 136.252 111.231 135.576C111.018 134.893 110.897 134.199 110.822 133.511C110.666 132.135 110.666 130.776 110.654 129.429C110.649 128.081 110.643 126.745 110.568 125.432C110.504 124.126 110.389 122.824 110.043 121.656C109.72 120.482 109.12 119.505 108.249 119.048C108.053 118.927 107.764 118.823 107.51 118.736C107.251 118.655 106.991 118.591 106.737 118.557C106.224 118.493 105.722 118.551 105.237 118.707C104.251 119.013 103.339 119.794 102.549 120.708C101.77 121.627 101.061 122.738 100.518 123.819L98.8281 123.177Z" fill="#FFB41B"/>
<path d="M139.545 104.423C127.154 112.398 117.087 117.579 115.402 118.435C115.402 118.441 115.391 118.441 115.391 118.441C115.391 118.441 115.391 118.441 115.385 118.441C114.479 118.828 113.187 119.32 112.662 119.245C111.589 119.089 108.676 118.724 108.676 119.476C108.676 120.39 109.974 121.332 109.974 121.332C109.974 121.332 109.01 122.009 109.587 122.778C109.587 122.778 109.345 123.403 109.876 123.836C109.876 123.836 109.858 123.86 109.835 123.906C109.391 124.675 110.066 125.623 110.943 125.467C111.179 125.427 111.468 125.369 111.779 125.294C111.779 125.346 111.779 125.392 111.779 125.444C111.993 125.346 112.218 125.236 112.443 125.12C113.885 124.698 115.679 123.917 116.706 122.495V122.506C126.848 120.789 136.684 116.787 145.389 112.109C145.62 111.987 145.845 111.854 146.075 111.733C143.929 109.269 141.755 106.834 139.545 104.423Z" fill="#FA9778"/>
<path d="M128.63 79.1166L137.099 74.2242C137.099 74.2242 149.612 90.619 153.39 103.255C153.39 103.255 156.05 109.119 142.176 114.537L136.868 105.36L141.022 102.937L128.63 79.1166Z" fill="#FF6168"/>
<path d="M141.022 102.937L132.432 86.2297L137.013 105.447L141.022 102.937Z" fill="#290920"/>
<path d="M86.9966 130.059C87.9831 129.324 89.0042 128.642 90.031 127.965C91.0521 127.283 92.0963 126.647 93.1462 126.005C94.2019 125.375 95.2519 124.75 96.3306 124.16L97.9459 123.275C98.494 122.998 99.0362 122.709 99.5958 122.443C99.1055 122.819 98.592 123.16 98.0959 123.518L96.5614 124.542C95.5403 125.219 94.4904 125.86 93.4462 126.502C92.3905 127.133 91.3405 127.757 90.2618 128.347C89.1888 128.943 88.11 129.527 86.9966 130.059Z" fill="#290920"/>
<path d="M96.1284 149.912C97.5072 148.882 98.9206 147.899 100.334 146.928C101.747 145.95 103.184 145.014 104.626 144.077C106.074 143.152 107.516 142.226 108.987 141.336L111.197 140.006C111.941 139.578 112.679 139.138 113.435 138.728C112.749 139.248 112.045 139.74 111.347 140.243L109.23 141.706C107.816 142.683 106.38 143.62 104.938 144.557C103.49 145.482 102.047 146.407 100.576 147.298C99.1109 148.2 97.6399 149.085 96.1284 149.912Z" fill="#290920"/>
<path d="M73.7282 142.781C73.5724 142.429 73.584 142.116 73.6359 141.804C73.7109 141.503 73.8205 141.208 74.1089 140.948C74.2705 141.301 74.2532 141.619 74.2012 141.926C74.132 142.232 74.0166 142.521 73.7282 142.781Z" fill="#290920"/>
<path d="M126.761 54.9265C126.721 54.9265 126.68 54.9265 126.646 54.9265L126.415 53.4229C125.861 49.8085 122.486 47.3334 118.887 47.8886C117.081 48.1662 115.564 49.1551 114.566 50.5198C113.562 51.8846 113.089 53.6369 113.366 55.4412L114.185 60.7557C114.312 61.5827 114.589 62.3518 114.981 63.04C116.302 65.3474 118.938 66.718 121.719 66.29C124.973 65.7869 127.298 62.9764 127.303 59.7726C128.088 59.2406 128.688 57.9568 128.728 57.0893C128.78 55.9443 127.898 54.9785 126.761 54.9265Z" fill="#FA9778"/>
<path d="M127.477 56.2276C127.073 56.43 126.698 56.6266 126.404 56.8984C126.248 57.0314 126.139 57.1934 126.035 57.3669C125.925 57.5403 125.885 57.7485 125.816 57.9683C125.758 57.7485 125.741 57.5056 125.816 57.2743C125.879 57.043 126.018 56.829 126.196 56.6671C126.375 56.511 126.583 56.3837 126.802 56.3143C127.016 56.245 127.246 56.2045 127.477 56.2276Z" fill="#290920"/>
<path d="M126.975 58.5524C126.906 58.1996 126.86 57.8873 126.744 57.6097C126.692 57.4709 126.611 57.3495 126.519 57.2281C126.427 57.1008 126.294 57.0141 126.156 56.8984C126.335 56.8926 126.519 56.9389 126.675 57.0488C126.836 57.1529 126.958 57.3148 127.027 57.4883C127.096 57.6676 127.125 57.8526 127.113 58.0319C127.102 58.2169 127.067 58.3962 126.975 58.5524Z" fill="#290920"/>
<path d="M120.826 60.4839C120.572 61.0275 120.058 61.4728 119.43 61.6174C119.112 61.6867 118.772 61.6578 118.483 61.5306C118.183 61.4207 117.953 61.1952 117.768 60.9639C118.051 61.0795 118.305 61.1952 118.57 61.2472C118.83 61.2993 119.095 61.3109 119.349 61.2472C119.862 61.1258 120.335 60.8251 120.826 60.4839Z" fill="#290920"/>
<path d="M118.259 56.5167C118.374 56.8348 118.449 57.1586 118.524 57.4825C118.564 57.6444 118.582 57.8237 118.576 58.0087C118.57 58.1938 118.507 58.3789 118.432 58.535C118.287 58.8415 118.062 59.1249 118.097 59.362C118.143 59.6106 118.466 59.813 118.766 59.9171C118.443 59.9287 118.039 59.8304 117.866 59.4256C117.791 59.2174 117.872 59.0092 117.93 58.8531C117.999 58.6911 118.085 58.5466 118.149 58.4078C118.299 58.1302 118.305 57.8526 118.282 57.5172C118.264 57.1876 118.241 56.8521 118.259 56.5167Z" fill="#290920"/>
<path d="M122.683 55.3775C122.475 55.2735 122.222 55.1983 121.985 55.152C121.743 55.1115 121.5 55.0884 121.264 55.1057C121.027 55.1347 120.791 55.1694 120.56 55.2445C120.329 55.3082 120.104 55.4007 119.862 55.4816L119.845 55.4874C119.672 55.5453 119.487 55.4527 119.429 55.2792C119.383 55.1404 119.435 54.9959 119.545 54.9149C120.018 54.5622 120.647 54.3713 121.258 54.406C121.564 54.4118 121.87 54.4812 122.152 54.5911C122.441 54.7009 122.689 54.8571 122.925 55.071C123.006 55.1404 123.012 55.2677 122.937 55.3428C122.879 55.4065 122.781 55.4238 122.706 55.3833L122.683 55.3775Z" fill="#290920"/>
<path d="M120.387 57.5298C120.45 57.9346 120.825 58.2122 121.235 58.1486C121.639 58.085 121.916 57.7091 121.852 57.2985C121.789 56.8937 121.414 56.6161 121.004 56.6797C120.6 56.7433 120.324 57.125 120.387 57.5298Z" fill="#290920"/>
<path d="M122.164 56.777C122.101 56.8811 122.032 56.9621 121.934 57.0431C121.841 57.1182 121.714 57.1876 121.564 57.205L121.518 57.2108C121.409 57.2223 121.31 57.1414 121.299 57.0315C121.287 56.9216 121.368 56.8233 121.478 56.8117C121.507 56.806 121.541 56.8117 121.57 56.8233C121.68 56.8638 121.876 56.777 122.009 56.6614L122.014 56.6556C122.055 56.6209 122.118 56.6267 122.153 56.6672C122.182 56.6961 122.187 56.7423 122.164 56.777Z" fill="#290920"/>
<path d="M114.139 56.4358C114.301 56.1582 114.491 55.9327 114.734 55.7419C114.97 55.551 115.235 55.3949 115.53 55.2966C116.107 55.0826 116.758 55.0653 117.318 55.2619C117.491 55.3197 117.578 55.5105 117.52 55.6782C117.474 55.817 117.341 55.898 117.208 55.898H117.191C116.937 55.8922 116.695 55.8749 116.453 55.8807C116.21 55.8807 115.974 55.9154 115.743 55.9616C115.512 56.0137 115.287 56.112 115.068 56.2219C114.86 56.3375 114.636 56.4879 114.474 56.6498L114.439 56.6671C114.364 56.7423 114.243 56.7423 114.168 56.6671C114.105 56.6035 114.099 56.5052 114.139 56.4358Z" fill="#290920"/>
<path d="M117.295 58.003C117.359 58.4078 117.082 58.7895 116.678 58.8531C116.274 58.9167 115.893 58.6391 115.83 58.2343C115.766 57.8295 116.043 57.4478 116.447 57.3842C116.857 57.3206 117.232 57.5982 117.295 58.003Z" fill="#290920"/>
<path d="M115.489 57.6675C115.657 57.7369 115.87 57.76 115.957 57.6906C116.043 57.6212 116.17 57.6386 116.239 57.7253C116.309 57.8121 116.291 57.9393 116.205 58.0087C116.182 58.0261 116.153 58.0434 116.124 58.0492L116.078 58.0608C115.928 58.0955 115.789 58.0665 115.674 58.0203C115.559 57.974 115.466 57.9104 115.374 57.8352C115.334 57.8005 115.328 57.7369 115.363 57.6964C115.391 57.6617 115.438 57.6502 115.478 57.6675H115.489Z" fill="#290920"/>
<path d="M117.133 61.1142C117.277 62.0569 116.631 62.9359 115.697 63.0805C115.449 63.1209 115.206 63.1036 114.981 63.04C114.583 62.3518 114.312 61.5884 114.185 60.7557L114.11 60.2815C114.37 59.9634 114.739 59.7437 115.172 59.6743C116.106 59.5239 116.983 60.1716 117.133 61.1142Z" fill="#FA7C55"/>
<path d="M120.946 60.5186C121.091 61.4613 121.967 62.1032 122.908 61.9586C123.848 61.814 124.488 60.935 124.344 59.9924C124.2 59.0498 123.323 58.4079 122.383 58.5524C121.448 58.697 120.802 59.5818 120.946 60.5186Z" fill="#FA7C55"/>
<path d="M122.25 52.7694C122.25 52.7694 123.404 56.7481 124.384 57.5172L125.936 55.7419C126.565 55.019 127.719 54.967 128.336 55.6956C128.405 55.7824 128.474 55.8749 128.526 55.979C128.994 56.9216 128.861 58.431 127.309 59.7726L125.307 63.4217C124.99 64.0057 124.846 64.6708 124.898 65.3358L125.29 70.3497C125.29 70.3497 129.167 71.0436 131.618 69.7367C132.201 69.4244 132.53 68.7825 132.484 68.1174C132.23 64.613 131.07 52.4745 127.211 49.4789C127.211 49.4789 121.367 43.8347 115.31 48.4091C109.252 52.9834 112.668 67.2269 112.875 68.6784C112.962 69.2625 113.071 69.8812 113.175 70.4191C113.337 71.2402 114.07 71.8128 114.9 71.7781L119.019 71.5872L118.183 65.8563C118.183 65.8563 115.65 64.8732 114.456 62.0511L113.475 56.0195C113.464 56.0195 117.981 56.6614 122.25 52.7694Z" fill="#290920"/>
<path d="M135.311 53.2494L128.336 48.9932H128.319C128.099 45.7489 125.411 43.1813 122.123 43.1813H119.908C116.614 43.1813 113.925 45.7431 113.706 48.9874H113.683L105.826 53.2726C105.434 53.4865 105.537 54.0822 105.982 54.1458C114.75 55.3486 130.303 54.4407 135.103 54.1169C135.553 54.0764 135.697 53.4865 135.311 53.2494Z" fill="#FFB41B"/>
<path d="M114.496 48.9065C116.613 48.6809 118.725 48.6289 120.842 48.6173C122.959 48.6231 125.07 48.6751 127.188 48.9065C125.07 49.1378 122.959 49.1898 120.842 49.1956C118.725 49.184 116.608 49.132 114.496 48.9065Z" fill="#290920"/>
</svg>
