<svg width="445" height="268" viewBox="0 0 445 268" fill="none" xmlns="http://www.w3.org/2000/svg">
<path fill-rule="evenodd" clip-rule="evenodd" d="M312.123 -358.959C366.396 -360.87 397.517 -295.701 445.638 -270.529C496.526 -243.909 571.884 -255.507 602.625 -206.997C633.128 -158.862 599.654 -95.7698 592.181 -39.2756C585.636 10.2024 582.814 59.5632 561.403 104.646C538.827 152.182 509.869 198.136 465.782 226.868C420.655 256.278 365.987 266.884 312.123 267.105C258.127 267.327 201.351 259.965 157.736 228.132C115.437 197.26 104.303 141.175 77.7436 96.0436C50.9338 50.4867 -5.0648 13.3046 0.368679 -39.2756C5.90067 -92.8091 69.8448 -117.878 104.136 -159.357C132.11 -193.195 152.252 -230.915 183.929 -261.314C223.357 -299.152 257.511 -357.036 312.123 -358.959Z" fill="#FFCB47"/>
</svg>
