<svg width="32" height="42" viewBox="0 0 32 42" fill="none" xmlns="http://www.w3.org/2000/svg">
<path d="M23.0915 0C23.0915 0 26.802 9.07726 10.8998 15.1744C2.25892 18.4865 -4.37778 26.9758 3.54643 40.0895C4.20269 34.2279 7.01666 21.3037 19.1166 18.3546C19.1166 18.3546 7.85471 22.5657 6.85987 41.6277C12.6467 42.4402 26.2185 42.9861 30.2479 31.2085C35.5688 15.6476 23.0915 0 23.0915 0Z" fill="#8DCE97"/>
<path d="M6.86512 41.5484C19.1501 36.6455 28.0889 25.16 29.3226 11.4489C26.8111 4.67443 23.0915 0 23.0915 0C23.0915 0 26.802 9.07726 10.8998 15.1744C2.25892 18.4865 -4.37778 26.9758 3.54643 40.0895C4.20269 34.2279 7.01666 21.3037 19.1166 18.3546C19.1159 18.3546 7.88753 22.5553 6.86512 41.5484Z" fill="#8DCE97"/>
<path d="M2.32059 15.477C2.95487 15.477 3.46905 14.9628 3.46905 14.3285C3.46905 13.6942 2.95487 13.1801 2.32059 13.1801C1.68631 13.1801 1.17212 13.6942 1.17212 14.3285C1.17212 14.9628 1.68631 15.477 2.32059 15.477Z" fill="#8DCE97"/>
<path d="M5.92991 14.0005C6.38295 14.0005 6.75021 13.6332 6.75021 13.1802C6.75021 12.7271 6.38295 12.3599 5.92991 12.3599C5.47688 12.3599 5.10962 12.7271 5.10962 13.1802C5.10962 13.6332 5.47688 14.0005 5.92991 14.0005Z" fill="#8DCE97"/>
<path d="M5.19161 7.43791C6.32421 7.43791 7.24236 6.51976 7.24236 5.38717C7.24236 4.25458 6.32421 3.33643 5.19161 3.33643C4.05902 3.33643 3.14087 4.25458 3.14087 5.38717C3.14087 6.51976 4.05902 7.43791 5.19161 7.43791Z" fill="#8DCE97"/>
<path d="M11.508 10.7192C11.8705 10.7192 12.1643 10.4254 12.1643 10.063C12.1643 9.70055 11.8705 9.40674 11.508 9.40674C11.1456 9.40674 10.8518 9.70055 10.8518 10.063C10.8518 10.4254 11.1456 10.7192 11.508 10.7192Z" fill="#8DCE97"/>
<path d="M17.0046 8.25827C18.0466 8.25827 18.8913 7.41356 18.8913 6.37157C18.8913 5.32957 18.0466 4.48486 17.0046 4.48486C15.9626 4.48486 15.1179 5.32957 15.1179 6.37157C15.1179 7.41356 15.9626 8.25827 17.0046 8.25827Z" fill="#8DCE97"/>
</svg>
